STARTFONT 2.1
FONT -FontForge-pixelpoiiz-Book-R-Normal--10-100-72-72-P-63-ISO10646-1
SIZE 10 72 72
FONTBOUNDINGBOX 10 10 0 -2
COMMENT "Generated by fontforge, http://fontforge.sourceforge.net"
COMMENT "(C) poiiz"
STARTPROPERTIES 40
FOUNDRY "FontForge"
FAMILY_NAME "pixelpoiiz"
WEIGHT_NAME "Book"
SLANT "R"
SETWIDTH_NAME "Normal"
ADD_STYLE_NAME ""
PIXEL_SIZE 10
POINT_SIZE 100
RESOLUTION_X 72
RESOLUTION_Y 72
SPACING "P"
AVERAGE_WIDTH 63
CHARSET_REGISTRY "ISO10646"
CHARSET_ENCODING "1"
FONTNAME_REGISTRY ""
CHARSET_COLLECTIONS "ISO10646-1"
FONT_NAME "pixelpoiiz"
FACE_NAME "pixelpoiiz"
COPYRIGHT "(C) poiiz"
FONT_VERSION "1.0"
FONT_ASCENT 8
FONT_DESCENT 2
UNDERLINE_POSITION -2
UNDERLINE_THICKNESS 1
X_HEIGHT 6
CAP_HEIGHT 6
RAW_ASCENT 799
RAW_DESCENT 200
ITALIC_ANGLE 5761
NORM_SPACE 4
RELATIVE_WEIGHT 40
RELATIVE_SETWIDTH 50
SUPERSCRIPT_X 0
SUPERSCRIPT_Y 5
SUPERSCRIPT_SIZE 5
SUBSCRIPT_X 0
SUBSCRIPT_Y 0
SUBSCRIPT_SIZE 5
AVG_LOWERCASE_WIDTH 62
AVG_UPPERCASE_WIDTH 71
ENDPROPERTIES
CHARS 95
STARTCHAR space
ENCODING 32
SWIDTH 400 0
DWIDTH 4 0
BBX 1 1 3 -2
BITMAP
00
ENDCHAR
STARTCHAR exclam
ENCODING 33
SWIDTH 400 0
DWIDTH 4 0
BBX 3 9 0 -2
BITMAP
40
E0
E0
40
40
00
A0
E0
40
ENDCHAR
STARTCHAR quotedbl
ENCODING 34
SWIDTH 599 0
DWIDTH 6 0
BBX 5 3 0 4
BITMAP
D8
48
90
ENDCHAR
STARTCHAR numbersign
ENCODING 35
SWIDTH 1000 0
DWIDTH 10 0
BBX 9 8 0 -1
BITMAP
2200
4100
8880
7700
2200
1400
1400
0800
ENDCHAR
STARTCHAR dollar
ENCODING 36
SWIDTH 1000 0
DWIDTH 10 0
BBX 9 9 0 -1
BITMAP
0800
0100
6380
9100
9000
6200
0500
1200
8000
ENDCHAR
STARTCHAR percent
ENCODING 37
SWIDTH 799 0
DWIDTH 8 0
BBX 7 6 0 0
BITMAP
6C
FE
F6
6C
38
10
ENDCHAR
STARTCHAR ampersand
ENCODING 38
SWIDTH 1099 0
DWIDTH 10 0
BBX 10 7 0 0
BITMAP
1400
1C00
0800
E240
4240
4240
E180
ENDCHAR
STARTCHAR quotesingle
ENCODING 39
SWIDTH 299 0
DWIDTH 3 0
BBX 2 3 0 5
BITMAP
C0
40
80
ENDCHAR
STARTCHAR parenleft
ENCODING 40
SWIDTH 799 0
DWIDTH 8 0
BBX 7 10 0 -2
BITMAP
30
30
00
CC
22
22
44
88
88
66
ENDCHAR
STARTCHAR parenright
ENCODING 41
SWIDTH 799 0
DWIDTH 8 0
BBX 7 10 0 -2
BITMAP
18
18
00
66
88
88
44
22
22
CC
ENDCHAR
STARTCHAR asterisk
ENCODING 42
SWIDTH 900 0
DWIDTH 9 0
BBX 8 10 0 -2
BITMAP
3C
5A
A5
A5
A5
5A
3C
24
18
18
ENDCHAR
STARTCHAR plus
ENCODING 43
SWIDTH 599 0
DWIDTH 6 0
BBX 5 5 0 0
BITMAP
20
20
F8
20
20
ENDCHAR
STARTCHAR comma
ENCODING 44
SWIDTH 299 0
DWIDTH 3 0
BBX 2 4 0 -2
BITMAP
C0
C0
40
80
ENDCHAR
STARTCHAR hyphen
ENCODING 45
SWIDTH 700 0
DWIDTH 7 0
BBX 6 2 0 2
BITMAP
A8
54
ENDCHAR
STARTCHAR period
ENCODING 46
SWIDTH 400 0
DWIDTH 4 0
BBX 3 3 0 0
BITMAP
A0
E0
40
ENDCHAR
STARTCHAR slash
ENCODING 47
SWIDTH 500 0
DWIDTH 5 0
BBX 4 8 0 -1
BITMAP
10
10
20
20
40
40
80
80
ENDCHAR
STARTCHAR zero
ENCODING 48
SWIDTH 900 0
DWIDTH 9 0
BBX 8 9 0 -1
BITMAP
10
28
12
07
72
88
88
88
70
ENDCHAR
STARTCHAR one
ENCODING 49
SWIDTH 400 0
DWIDTH 4 0
BBX 3 7 0 -1
BITMAP
40
C0
40
40
40
40
E0
ENDCHAR
STARTCHAR two
ENCODING 50
SWIDTH 500 0
DWIDTH 5 0
BBX 4 6 0 1
BITMAP
60
90
20
40
80
F0
ENDCHAR
STARTCHAR three
ENCODING 51
SWIDTH 500 0
DWIDTH 5 0
BBX 4 7 0 -1
BITMAP
60
90
10
20
10
90
60
ENDCHAR
STARTCHAR four
ENCODING 52
SWIDTH 700 0
DWIDTH 7 0
BBX 6 10 0 -2
BITMAP
A0
E0
48
08
88
88
88
7C
08
08
ENDCHAR
STARTCHAR five
ENCODING 53
SWIDTH 599 0
DWIDTH 6 0
BBX 5 7 0 0
BITMAP
78
40
40
78
08
88
70
ENDCHAR
STARTCHAR six
ENCODING 54
SWIDTH 599 0
DWIDTH 6 0
BBX 5 7 0 -2
BITMAP
70
88
80
B0
C8
88
70
ENDCHAR
STARTCHAR seven
ENCODING 55
SWIDTH 599 0
DWIDTH 6 0
BBX 5 6 0 0
BITMAP
F8
88
10
20
40
40
ENDCHAR
STARTCHAR eight
ENCODING 56
SWIDTH 500 0
DWIDTH 5 0
BBX 4 7 0 0
BITMAP
60
90
90
60
90
90
60
ENDCHAR
STARTCHAR nine
ENCODING 57
SWIDTH 500 0
DWIDTH 5 0
BBX 4 7 0 -1
BITMAP
60
90
90
70
10
90
60
ENDCHAR
STARTCHAR colon
ENCODING 58
SWIDTH 400 0
DWIDTH 4 0
BBX 3 7 0 -1
BITMAP
A0
E0
40
00
A0
E0
40
ENDCHAR
STARTCHAR semicolon
ENCODING 59
SWIDTH 299 0
DWIDTH 3 0
BBX 2 7 0 -2
BITMAP
C0
C0
00
C0
C0
40
80
ENDCHAR
STARTCHAR less
ENCODING 60
SWIDTH 500 0
DWIDTH 5 0
BBX 4 7 0 0
BITMAP
10
20
40
80
40
20
10
ENDCHAR
STARTCHAR equal
ENCODING 61
SWIDTH 500 0
DWIDTH 5 0
BBX 4 3 0 1
BITMAP
F0
00
F0
ENDCHAR
STARTCHAR greater
ENCODING 62
SWIDTH 500 0
DWIDTH 5 0
BBX 4 7 0 0
BITMAP
80
40
20
10
20
40
80
ENDCHAR
STARTCHAR question
ENCODING 63
SWIDTH 500 0
DWIDTH 5 0
BBX 4 8 0 0
BITMAP
60
90
50
20
40
40
00
40
ENDCHAR
STARTCHAR at
ENCODING 64
SWIDTH 900 0
DWIDTH 9 0
BBX 8 8 0 -2
BITMAP
3C
42
99
A5
A5
9A
40
3E
ENDCHAR
STARTCHAR A
ENCODING 65
SWIDTH 700 0
DWIDTH 7 0
BBX 6 6 0 0
BITMAP
30
48
48
84
FC
84
ENDCHAR
STARTCHAR B
ENCODING 66
SWIDTH 599 0
DWIDTH 6 0
BBX 5 7 0 -1
BITMAP
E0
90
90
E0
90
88
70
ENDCHAR
STARTCHAR C
ENCODING 67
SWIDTH 700 0
DWIDTH 7 0
BBX 6 8 0 0
BITMAP
78
84
94
A4
98
80
48
30
ENDCHAR
STARTCHAR D
ENCODING 68
SWIDTH 700 0
DWIDTH 7 0
BBX 6 7 0 0
BITMAP
F0
48
44
54
44
48
F0
ENDCHAR
STARTCHAR E
ENCODING 69
SWIDTH 500 0
DWIDTH 5 0
BBX 4 7 0 -1
BITMAP
F0
80
80
E0
80
80
F0
ENDCHAR
STARTCHAR F
ENCODING 70
SWIDTH 700 0
DWIDTH 7 0
BBX 6 8 0 -1
BITMAP
F8
80
80
E0
80
94
9C
08
ENDCHAR
STARTCHAR G
ENCODING 71
SWIDTH 799 0
DWIDTH 8 0
BBX 7 9 0 -2
BITMAP
70
88
88
80
BA
88
7A
00
14
ENDCHAR
STARTCHAR H
ENCODING 72
SWIDTH 599 0
DWIDTH 6 0
BBX 5 9 0 -2
BITMAP
A8
00
88
88
88
F8
88
88
88
ENDCHAR
STARTCHAR I
ENCODING 73
SWIDTH 700 0
DWIDTH 7 0
BBX 6 7 0 0
BITMAP
E0
40
54
5C
48
40
E0
ENDCHAR
STARTCHAR J
ENCODING 74
SWIDTH 500 0
DWIDTH 5 0
BBX 4 7 0 0
BITMAP
70
10
10
10
90
90
60
ENDCHAR
STARTCHAR K
ENCODING 75
SWIDTH 700 0
DWIDTH 7 0
BBX 6 7 0 0
BITMAP
88
90
A0
C0
A0
94
88
ENDCHAR
STARTCHAR L
ENCODING 76
SWIDTH 599 0
DWIDTH 6 0
BBX 5 7 0 0
BITMAP
80
80
A8
B8
90
80
F8
ENDCHAR
STARTCHAR M
ENCODING 77
SWIDTH 799 0
DWIDTH 8 0
BBX 7 9 0 -1
BITMAP
28
38
92
C6
AA
92
82
82
82
ENDCHAR
STARTCHAR N
ENCODING 78
SWIDTH 599 0
DWIDTH 6 0
BBX 5 7 0 -1
BITMAP
88
C8
A8
98
88
88
88
ENDCHAR
STARTCHAR O
ENCODING 79
SWIDTH 799 0
DWIDTH 8 0
BBX 7 8 0 -1
BITMAP
38
44
82
AA
92
82
44
38
ENDCHAR
STARTCHAR P
ENCODING 80
SWIDTH 599 0
DWIDTH 6 0
BBX 5 9 0 -1
BITMAP
F0
88
88
88
F0
80
A8
B8
10
ENDCHAR
STARTCHAR Q
ENCODING 81
SWIDTH 900 0
DWIDTH 9 0
BBX 8 8 0 -1
BITMAP
38
44
82
AA
BA
92
44
3B
ENDCHAR
STARTCHAR R
ENCODING 82
SWIDTH 900 0
DWIDTH 9 0
BBX 8 8 0 -1
BITMAP
F0
88
88
F0
C2
A5
91
8E
ENDCHAR
STARTCHAR S
ENCODING 83
SWIDTH 500 0
DWIDTH 5 0
BBX 4 8 0 0
BITMAP
60
90
80
40
20
10
90
60
ENDCHAR
STARTCHAR T
ENCODING 84
SWIDTH 799 0
DWIDTH 8 0
BBX 7 7 0 0
BITMAP
FE
10
10
10
10
10
10
ENDCHAR
STARTCHAR U
ENCODING 85
SWIDTH 700 0
DWIDTH 7 0
BBX 6 7 0 0
BITMAP
84
84
84
84
84
84
78
ENDCHAR
STARTCHAR V
ENCODING 86
SWIDTH 799 0
DWIDTH 8 0
BBX 7 10 0 -2
BITMAP
10
92
44
00
44
44
28
28
10
10
ENDCHAR
STARTCHAR W
ENCODING 87
SWIDTH 799 0
DWIDTH 8 0
BBX 7 7 0 0
BITMAP
44
82
82
92
92
92
6C
ENDCHAR
STARTCHAR X
ENCODING 88
SWIDTH 799 0
DWIDTH 8 0
BBX 7 9 0 -2
BITMAP
28
38
92
44
28
10
28
44
82
ENDCHAR
STARTCHAR Y
ENCODING 89
SWIDTH 799 0
DWIDTH 8 0
BBX 7 7 0 0
BITMAP
82
44
28
10
10
10
38
ENDCHAR
STARTCHAR Z
ENCODING 90
SWIDTH 900 0
DWIDTH 9 0
BBX 8 6 0 0
BITMAP
F8
08
12
27
42
F8
ENDCHAR
STARTCHAR bracketleft
ENCODING 91
SWIDTH 599 0
DWIDTH 6 0
BBX 5 10 0 -2
BITMAP
F8
C0
C0
C0
C0
00
A0
E0
40
18
ENDCHAR
STARTCHAR backslash
ENCODING 92
SWIDTH 500 0
DWIDTH 5 0
BBX 4 8 0 -1
BITMAP
80
80
40
40
20
20
10
10
ENDCHAR
STARTCHAR bracketright
ENCODING 93
SWIDTH 700 0
DWIDTH 7 0
BBX 6 10 0 -2
BITMAP
D4
1C
08
00
18
18
18
18
18
F8
ENDCHAR
STARTCHAR asciicircum
ENCODING 94
SWIDTH 599 0
DWIDTH 6 0
BBX 5 3 0 4
BITMAP
20
50
88
ENDCHAR
STARTCHAR underscore
ENCODING 95
SWIDTH 799 0
DWIDTH 8 0
BBX 7 3 0 0
BITMAP
0A
04
FC
ENDCHAR
STARTCHAR grave
ENCODING 96
SWIDTH 299 0
DWIDTH 3 0
BBX 2 2 0 5
BITMAP
80
40
ENDCHAR
STARTCHAR a
ENCODING 97
SWIDTH 700 0
DWIDTH 7 0
BBX 6 6 0 0
BITMAP
60
90
30
50
9C
60
ENDCHAR
STARTCHAR b
ENCODING 98
SWIDTH 599 0
DWIDTH 6 0
BBX 5 7 0 0
BITMAP
C0
40
40
70
48
48
B0
ENDCHAR
STARTCHAR c
ENCODING 99
SWIDTH 500 0
DWIDTH 5 0
BBX 4 4 0 0
BITMAP
60
80
80
70
ENDCHAR
STARTCHAR d
ENCODING 100
SWIDTH 599 0
DWIDTH 6 0
BBX 5 8 0 0
BITMAP
08
10
10
10
70
90
90
68
ENDCHAR
STARTCHAR e
ENCODING 101
SWIDTH 599 0
DWIDTH 6 0
BBX 5 6 0 0
BITMAP
70
88
88
F0
80
60
ENDCHAR
STARTCHAR f
ENCODING 102
SWIDTH 599 0
DWIDTH 6 0
BBX 5 7 0 0
BITMAP
18
20
20
F8
20
20
70
ENDCHAR
STARTCHAR g
ENCODING 103
SWIDTH 599 0
DWIDTH 6 0
BBX 5 8 0 -2
BITMAP
30
48
48
30
10
70
88
70
ENDCHAR
STARTCHAR h
ENCODING 104
SWIDTH 799 0
DWIDTH 8 0
BBX 7 7 0 0
BITMAP
0A
CE
44
70
48
48
CC
ENDCHAR
STARTCHAR i
ENCODING 105
SWIDTH 500 0
DWIDTH 5 0
BBX 4 9 0 -1
BITMAP
60
90
90
60
00
40
40
40
40
ENDCHAR
STARTCHAR j
ENCODING 106
SWIDTH 599 0
DWIDTH 6 0
BBX 5 10 0 -2
BITMAP
10
28
10
00
30
10
10
10
90
60
ENDCHAR
STARTCHAR k
ENCODING 107
SWIDTH 599 0
DWIDTH 6 0
BBX 5 7 0 0
BITMAP
C0
40
48
50
60
50
C8
ENDCHAR
STARTCHAR l
ENCODING 108
SWIDTH 400 0
DWIDTH 4 0
BBX 3 7 0 0
BITMAP
C0
40
40
40
40
40
E0
ENDCHAR
STARTCHAR m
ENCODING 109
SWIDTH 1000 0
DWIDTH 10 0
BBX 8 8 1 0
BITMAP
05
07
E2
90
9C
92
92
92
ENDCHAR
STARTCHAR n
ENCODING 110
SWIDTH 799 0
DWIDTH 8 0
BBX 7 5 0 0
BITMAP
B8
44
44
44
E6
ENDCHAR
STARTCHAR o
ENCODING 111
SWIDTH 599 0
DWIDTH 6 0
BBX 5 5 0 0
BITMAP
70
88
88
88
70
ENDCHAR
STARTCHAR p
ENCODING 112
SWIDTH 700 0
DWIDTH 7 0
BBX 6 8 0 -2
BITMAP
B8
44
44
44
78
40
40
E0
ENDCHAR
STARTCHAR q
ENCODING 113
SWIDTH 599 0
DWIDTH 6 0
BBX 5 7 0 -2
BITMAP
68
90
90
70
10
10
38
ENDCHAR
STARTCHAR r
ENCODING 114
SWIDTH 599 0
DWIDTH 6 0
BBX 5 5 0 0
BITMAP
80
50
68
40
40
ENDCHAR
STARTCHAR s
ENCODING 115
SWIDTH 500 0
DWIDTH 5 0
BBX 4 6 0 0
BITMAP
60
90
80
60
10
E0
ENDCHAR
STARTCHAR t
ENCODING 116
SWIDTH 400 0
DWIDTH 4 0
BBX 3 9 0 -1
BITMAP
A0
40
00
40
E0
40
40
40
60
ENDCHAR
STARTCHAR u
ENCODING 117
SWIDTH 599 0
DWIDTH 6 0
BBX 5 5 0 0
BITMAP
80
88
88
88
70
ENDCHAR
STARTCHAR v
ENCODING 118
SWIDTH 599 0
DWIDTH 6 0
BBX 5 5 0 0
BITMAP
88
88
88
50
20
ENDCHAR
STARTCHAR w
ENCODING 119
SWIDTH 799 0
DWIDTH 8 0
BBX 7 5 0 0
BITMAP
44
82
92
92
6C
ENDCHAR
STARTCHAR x
ENCODING 120
SWIDTH 599 0
DWIDTH 6 0
BBX 5 7 0 0
BITMAP
50
20
88
50
20
50
88
ENDCHAR
STARTCHAR y
ENCODING 121
SWIDTH 799 0
DWIDTH 8 0
BBX 7 10 0 -2
BITMAP
04
4E
A4
40
08
88
88
78
08
70
ENDCHAR
STARTCHAR z
ENCODING 122
SWIDTH 599 0
DWIDTH 6 0
BBX 5 6 0 -1
BITMAP
F8
08
10
20
40
F8
ENDCHAR
STARTCHAR braceleft
ENCODING 123
SWIDTH 599 0
DWIDTH 6 0
BBX 5 7 0 0
BITMAP
30
48
40
80
40
48
30
ENDCHAR
STARTCHAR bar
ENCODING 124
SWIDTH 200 0
DWIDTH 2 0
BBX 1 7 0 0
BITMAP
80
00
80
00
80
00
80
ENDCHAR
STARTCHAR braceright
ENCODING 125
SWIDTH 599 0
DWIDTH 6 0
BBX 5 7 0 0
BITMAP
60
90
10
08
10
90
60
ENDCHAR
STARTCHAR asciitilde
ENCODING 126
SWIDTH 799 0
DWIDTH 8 0
BBX 7 7 0 1
BITMAP
0A
0E
04
00
62
92
8C
ENDCHAR
ENDFONT
